<svg width="20" height="17" viewBox="0 0 20 17" fill="none" xmlns="http://www.w3.org/2000/svg">
<g clip-path="url(#clip0_83_140)">
<path d="M16.1 7.6001H13.1C12.7 7.6001 12.3 7.9001 12.3 8.3001C12.3 8.7001 12.6 9.1001 13 9.1001H16C16.4 9.1001 16.7 8.8001 16.8 8.4001C16.8 8.2001 16.7 8.0001 16.6 7.9001C16.5 7.7001 16.3 7.6001 16.1 7.6001Z" fill="#CC9E40"/>
<path d="M10.1 7.5001H2.50001L8.60001 1.3001C8.90001 1.0001 8.90001 0.500098 8.60001 0.200098C8.30001 -0.0999023 7.80001 -0.0999023 7.50001 0.200098L0.200006 7.6001C-0.0999939 7.9001 -0.0999939 8.4001 0.200006 8.7001L7.60001 16.2001C7.70001 16.3001 7.90001 16.4001 8.10001 16.4001C8.30001 16.4001 8.50001 16.3001 8.60001 16.2001C9.00001 16.0001 9.00001 15.5001 8.70001 15.2001L2.60001 9.0001H10.1C10.5 9.0001 10.8 8.7001 10.9 8.3001C10.9 8.1001 10.8 7.9001 10.7 7.8001C10.5 7.6001 10.3 7.5001 10.1 7.5001Z" fill="#CC9E40"/>
<path d="M19.1 7.6001C18.7 7.6001 18.3 7.9001 18.3 8.3001C18.3 8.5001 18.4 8.7001 18.5 8.8001C18.6 8.9001 18.8 9.0001 19 9.0001C19.4 9.0001 19.7 8.7001 19.8 8.3001C19.9 8.0001 19.5 7.6001 19.1 7.6001Z" fill="#CC9E40"/>
</g>
<defs>
<clipPath id="clip0_83_140">
<rect width="19.9" height="16.5" fill="white"/>
</clipPath>
</defs>
</svg>
