<svg width="79" height="79" viewBox="0 0 79 79" fill="none" xmlns="http://www.w3.org/2000/svg">
<path d="M72.7 55.7998C74.9 57.9998 76.3 60.9998 76.3 64.2998C76.3 70.8998 70.9 76.2998 64.3 76.2998C61 76.2998 58 74.9998 55.8 72.7998" stroke="#F2BB4B" stroke-width="5" stroke-miterlimit="10" stroke-linecap="round" stroke-linejoin="round"/>
<path d="M55.8 72.7C50.9 75.1 45.3 76.5 39.5 76.5C19.1 76.5 2.5 59.9 2.5 39.5C2.5 19.1 19.1 2.5 39.5 2.5C59.9 2.5 76.5 19.1 76.5 39.5C76.5 45.3 75.1 50.9 72.7 55.8" stroke="#F2BB4B" stroke-width="5" stroke-miterlimit="10" stroke-linecap="round" stroke-linejoin="round"/>
<path d="M39.5 20.8999L23.5 52.7999H55.5L39.5 20.8999Z" stroke="#434345" stroke-width="2" stroke-miterlimit="10" stroke-linecap="round" stroke-linejoin="round"/>
<path d="M33.4 46.3001H45.6L39.5 34.1001L33.4 46.3001Z" stroke="#434345" stroke-width="2" stroke-miterlimit="10" stroke-linecap="round" stroke-linejoin="round"/>
<path d="M55.5 70.6C50.7 73.1 45.3 74.5 39.5 74.5C20.2 74.5 4.5 58.8 4.5 39.5C4.5 20.2 20.2 4.5 39.5 4.5C58.8 4.5 74.5 20.2 74.5 39.5C74.5 45.1 73.2 50.4 70.9 55.1" stroke="#434345" stroke-width="3" stroke-miterlimit="10" stroke-linecap="round" stroke-linejoin="round"/>
<path d="M54.1 65.7C49.8 68.1 44.8 69.5 39.5 69.5C22.9 69.5 9.5 56.1 9.5 39.5C9.5 22.9 22.9 9.5 39.5 9.5C56.1 9.5 69.5 22.9 69.5 39.5C69.5 44.8 68.1 49.8 65.7 54.1" stroke="#434345" stroke-width="2" stroke-miterlimit="10" stroke-linecap="round" stroke-linejoin="round" stroke-dasharray="10 10"/>
<path d="M64.3 74.5001C69.9333 74.5001 74.5 69.9334 74.5 64.3001C74.5 58.6668 69.9333 54.1001 64.3 54.1001C58.6667 54.1001 54.1 58.6668 54.1 64.3001C54.1 69.9334 58.6667 74.5001 64.3 74.5001Z" stroke="#434345" stroke-width="3" stroke-miterlimit="10" stroke-linecap="round" stroke-linejoin="round"/>
<path d="M60.7 64.2998H67.9" stroke="#434345" stroke-width="2" stroke-miterlimit="10" stroke-linecap="round" stroke-linejoin="round"/>
<path d="M64.3 67.9002V60.7002" stroke="#434345" stroke-width="2" stroke-miterlimit="10" stroke-linecap="round" stroke-linejoin="round"/>
</svg>
