<svg width="15" height="15" viewBox="0 0 15 15" fill="none" xmlns="http://www.w3.org/2000/svg">
<g clip-path="url(#clip0_94_130)">
<path d="M20 7C20 14.1797 14.1797 20 7 20C-0.179702 20 -6 14.1797 -6 7C-6 -0.179702 -0.179702 -6 7 -6C14.1797 -6 20 -0.179702 20 7Z" fill="white"/>
<path d="M14.7 0.200098C14.4 -0.0999023 13.9 -0.0999023 13.6 0.200098L7.39998 6.4001L1.29998 0.200098C0.999975 -0.0999023 0.499976 -0.0999023 0.199976 0.200098C-0.100024 0.500098 -0.100024 1.0001 0.199976 1.3001L6.39998 7.5001L0.199976 13.7001C-0.100024 14.0001 -0.100024 14.5001 0.199976 14.8001C0.299976 14.9001 0.499976 15.0001 0.699976 15.0001C0.899976 15.0001 1.09998 14.9001 1.19998 14.8001L14.7 1.3001C15 1.0001 15 0.500098 14.7 0.200098Z" fill="#434345"/>
<path d="M13.6 13.6C13.3 13.9 13.3 14.4 13.6 14.7C13.7 14.8 13.9 14.9 14.1 14.9C14.3 14.9 14.5 14.8 14.6 14.7C14.9 14.4 14.9 13.9 14.6 13.6C14.4 13.3 13.9 13.3 13.6 13.6Z" fill="#434345"/>
<path d="M9.70002 8.6C9.40002 8.3 8.90003 8.3 8.60003 8.6C8.50003 8.8 8.40002 9 8.40002 9.2C8.40002 9.4 8.50003 9.6 8.60003 9.7L11.4 12.5C11.5 12.6 11.7 12.7 11.9 12.7C12.1 12.7 12.3 12.6 12.4 12.5C12.5 12.4 12.6 12.2 12.6 12C12.6 11.8 12.5 11.6 12.4 11.5L9.70002 8.6Z" fill="#434345"/>
</g>
<defs>
<clipPath id="clip0_94_130">
<rect width="14.9" height="14.9" fill="white"/>
</clipPath>
</defs>
</svg>
