<svg width="18" height="18" viewBox="0 0 18 18" fill="none" xmlns="http://www.w3.org/2000/svg">
<g clip-path="url(#clip0_94_136)">
<path d="M16.8 2.7998V0.799805H14.8L16.8 2.7998Z" stroke="#CC9E40" stroke-width="1.5" stroke-miterlimit="10" stroke-linecap="round" stroke-linejoin="round"/>
<path d="M7.90002 9.5998L16.3 1.2998" stroke="#CC9E40" stroke-width="1.5" stroke-miterlimit="10" stroke-linecap="round" stroke-linejoin="round"/>
<path d="M16.1 5.6998C16.5 6.6998 16.7 7.6998 16.7 8.7998C16.7 13.1998 13.1 16.7998 8.70001 16.7998C4.30001 16.7998 0.700012 13.1998 0.700012 8.7998C0.700012 4.3998 4.30001 0.799805 8.70001 0.799805C9.80001 0.799805 10.9 0.999805 11.8 1.3998" stroke="#CC9E40" stroke-width="1.5" stroke-miterlimit="10" stroke-linecap="round" stroke-linejoin="round"/>
<path d="M13.6 8.7999C13.6 11.4999 11.4 13.6999 8.69999 13.6999C5.99999 13.6999 3.79999 11.4999 3.79999 8.7999C3.79999 6.0999 5.99999 3.8999 8.69999 3.8999" stroke="#CC9E40" stroke-miterlimit="10" stroke-linecap="round" stroke-linejoin="round" stroke-dasharray="5 5"/>
</g>
<defs>
<clipPath id="clip0_94_136">
<rect width="17.5" height="17.5" fill="white"/>
</clipPath>
</defs>
</svg>
