<svg width="18" height="21" viewBox="0 0 18 21" fill="none" xmlns="http://www.w3.org/2000/svg">
<g clip-path="url(#clip0_93_8)">
<path d="M10 6.5001L8.7 5.1001L7.3 6.5001H10Z" stroke="#CC9E40" stroke-width="1.5" stroke-miterlimit="10" stroke-linecap="round" stroke-linejoin="round"/>
<path d="M8.79999 20.7C8.39999 20.7 7.99999 20.4 7.99999 20C7.99999 19.6 8.29999 19.2 8.79999 19.2C9.19999 19.2 9.59999 19.5 9.59999 20C9.59999 20.2 9.49999 20.4 9.39999 20.5C9.19999 20.7 8.99999 20.7 8.79999 20.7ZM8.79999 17.7C8.29999 17.7 7.99999 17.4 7.99999 17V16C7.99999 15.8 8.09999 15.6 8.19999 15.5C8.39999 15.4 8.49999 15.3 8.69999 15.3C9.09999 15.3 9.49999 15.6 9.49999 16.1V17.1C9.49999 17.3 9.39999 17.5 9.29999 17.6C9.19999 17.7 8.99999 17.7 8.79999 17.7ZM8.69999 13.7C8.29999 13.7 7.99999 13.4 7.99999 13L7.89999 5.8C7.89999 5.6 7.99999 5.4 8.09999 5.3C8.29999 5.1 8.49999 5 8.69999 5C9.09999 5 9.49999 5.3 9.49999 5.7V13C9.49999 13.4 9.09999 13.7 8.69999 13.7Z" fill="#CC9E40"/>
<path d="M5.4 16.0998H0.800003V0.799805H16.7V16.0998H12.3" stroke="#CC9E40" stroke-width="1.5" stroke-miterlimit="10" stroke-linecap="round" stroke-linejoin="round"/>
</g>
<defs>
<clipPath id="clip0_93_8">
<rect width="17.5" height="20.7" fill="white"/>
</clipPath>
</defs>
</svg>
