<svg width="29" height="14" viewBox="0 0 29 14" fill="none" xmlns="http://www.w3.org/2000/svg">
<path d="M9 0H4.2V4.2H0V8.9H4.2V13.1H9V8.9H13.2V4.2H9V0Z" fill="#434345"/>
<path d="M17.9 8.59998C19.0046 8.59998 19.9 7.70455 19.9 6.59998C19.9 5.49541 19.0046 4.59998 17.9 4.59998C16.7954 4.59998 15.9 5.49541 15.9 6.59998C15.9 7.70455 16.7954 8.59998 17.9 8.59998Z" fill="#434345"/>
<path d="M27 8.59998C28.1046 8.59998 29 7.70455 29 6.59998C29 5.49541 28.1046 4.59998 27 4.59998C25.8954 4.59998 25 5.49541 25 6.59998C25 7.70455 25.8954 8.59998 27 8.59998Z" fill="#434345"/>
<path d="M22.5 13.1C23.6046 13.1 24.5 12.2045 24.5 11.1C24.5 9.99541 23.6046 9.09998 22.5 9.09998C21.3954 9.09998 20.5 9.99541 20.5 11.1C20.5 12.2045 21.3954 13.1 22.5 13.1Z" fill="#434345"/>
<path d="M22.5 4C23.6046 4 24.5 3.10457 24.5 2C24.5 0.89543 23.6046 0 22.5 0C21.3954 0 20.5 0.89543 20.5 2C20.5 3.10457 21.3954 4 22.5 4Z" fill="#434345"/>
</svg>
